<svg width="106" height="120" viewBox="0 0 106 120" fill="none" xmlns="http://www.w3.org/2000/svg">
<g clip-path="url(#clip0_1_49)">
<path d="M105.312 60.0107C105.312 53.0343 96.5753 46.4228 83.1806 42.3228C86.2717 28.6704 84.8978 17.8087 78.8444 14.3312C77.4492 13.5155 75.8177 13.1291 74.0361 13.1291V17.916C75.0235 17.916 75.8177 18.1092 76.4832 18.4741C79.4025 20.1484 80.669 26.5238 79.6816 34.7238C79.4455 36.7416 79.0591 38.8668 78.5868 41.0348C74.3795 40.0045 69.7858 39.2102 64.956 38.695C62.0581 34.7238 59.0528 31.1176 56.0261 27.9621C63.024 21.4579 69.5926 17.8945 74.0575 17.8945V13.1076C68.1544 13.1076 60.4267 17.3149 52.613 24.6134C44.7994 17.3579 37.0717 13.1935 31.1686 13.1935V17.9804C35.612 17.9804 42.2021 21.5223 49.2 27.9835C46.1947 31.139 43.1895 34.7238 40.3345 38.695C35.4832 39.2102 30.8895 40.0045 26.6822 41.0563C26.1885 38.9097 25.8235 36.8275 25.5659 34.8312C24.557 26.6312 25.8021 20.2558 28.7 18.56C29.344 18.1736 30.1811 18.0018 31.1686 18.0018V13.2149C29.3654 13.2149 27.734 13.6013 26.3173 14.417C20.2853 17.8945 18.933 28.7348 22.0455 42.3443C8.69371 46.4657 0 53.0558 0 60.0107C0 66.9872 8.73664 73.5987 22.1314 77.6987C19.0403 91.3511 20.4141 102.213 26.4675 105.69C27.8628 106.506 29.4942 106.892 31.2974 106.892C37.2005 106.892 44.9282 102.685 52.7418 95.3867C60.5554 102.642 68.2832 106.807 74.1863 106.807C75.9895 106.807 77.6209 106.42 79.0376 105.604C85.0696 102.127 86.4219 91.2867 83.3093 77.6772C96.6182 73.5772 105.312 66.9657 105.312 60.0107ZM77.3633 45.6929C76.569 48.4621 75.5816 51.317 74.4654 54.172C73.5853 52.4547 72.6622 50.7374 71.6533 49.0202C70.6659 47.3029 69.6141 45.6285 68.5623 43.9971C71.6104 44.4479 74.5512 45.006 77.3633 45.6929ZM67.5319 68.5542C65.8575 71.4521 64.1403 74.1997 62.3586 76.7542C59.1602 77.0333 55.9188 77.1835 52.656 77.1835C49.4146 77.1835 46.1733 77.0333 42.9963 76.7757C41.2146 74.2212 39.4759 71.495 37.8015 68.6186C36.1701 65.8066 34.689 62.9516 33.3366 60.0751C34.6675 57.1987 36.1701 54.3223 37.7801 51.5102C39.4544 48.6123 41.1717 45.8647 42.9534 43.3102C46.1518 43.0312 49.3932 42.8809 52.656 42.8809C55.8973 42.8809 59.1387 43.0312 62.3157 43.2888C64.0973 45.8432 65.8361 48.5694 67.5104 51.4458C69.1418 54.2579 70.623 57.1128 71.9753 59.9893C70.623 62.8657 69.1418 65.7422 67.5319 68.5542ZM74.4654 65.7636C75.6245 68.6401 76.612 71.5165 77.4277 74.3071C74.6156 74.994 71.6533 75.5736 68.5837 76.0244C69.6355 74.3715 70.6874 72.6757 71.6748 70.9369C72.6622 69.2196 73.5853 67.4809 74.4654 65.7636ZM52.6989 88.6678C50.7026 86.6071 48.7062 84.3102 46.7314 81.7987C48.6633 81.8846 50.6382 81.949 52.6345 81.949C54.6523 81.949 56.6486 81.906 58.602 81.7987C56.6701 84.3102 54.6738 86.6071 52.6989 88.6678ZM36.7282 76.0244C33.6801 75.5736 30.7392 75.0155 27.9272 74.3285C28.7214 71.5594 29.7089 68.7045 30.8251 65.8495C31.7052 67.5668 32.6282 69.284 33.6371 71.0013C34.646 72.7186 35.6764 74.3929 36.7282 76.0244ZM52.5916 31.3537C54.5879 33.4144 56.5842 35.7113 58.5591 38.2228C56.6272 38.1369 54.6523 38.0725 52.656 38.0725C50.6382 38.0725 48.6418 38.1155 46.6884 38.2228C48.6204 35.7113 50.6167 33.4144 52.5916 31.3537ZM36.7068 43.9971C35.6549 45.65 34.6031 47.3458 33.6157 49.0846C32.6282 50.8018 31.7052 52.5191 30.8251 54.2364C29.6659 51.36 28.6785 48.4835 27.8628 45.6929C30.6748 45.0275 33.6371 44.4479 36.7068 43.9971ZM17.2801 70.8725C9.68115 67.6312 4.76544 63.3809 4.76544 60.0107C4.76544 56.6406 9.68115 52.3689 17.2801 49.149C19.1262 48.3547 21.144 47.6463 23.2262 46.9809C24.4497 51.1882 26.0597 55.5673 28.056 60.0537C26.0811 64.5186 24.4927 68.8762 23.2906 73.062C21.1654 72.3966 19.1476 71.6668 17.2801 70.8725ZM28.8288 101.547C25.9094 99.873 24.6429 93.4977 25.6303 85.2977C25.8665 83.2799 26.2529 81.1547 26.7251 78.9867C30.9324 80.017 35.5262 80.8113 40.356 81.3264C43.2539 85.2977 46.2591 88.9039 49.2858 92.0594C42.2879 98.5636 35.7193 102.127 31.2544 102.127C30.2885 102.106 29.4728 101.912 28.8288 101.547ZM79.746 85.1903C80.7549 93.3903 79.5099 99.7657 76.612 101.462C75.968 101.848 75.1308 102.02 74.1434 102.02C69.6999 102.02 63.1099 98.4778 56.112 92.0165C59.1172 88.861 62.1225 85.2762 64.9774 81.305C69.8287 80.7898 74.4224 79.9956 78.6298 78.9437C79.1235 81.1118 79.5099 83.194 79.746 85.1903ZM88.0104 70.8725C86.1643 71.6668 84.1465 72.3751 82.0643 73.0406C80.8408 68.8333 79.2308 64.4542 77.2345 59.9678C79.2094 55.5029 80.7978 51.1453 81.9999 46.9594C84.1251 47.6249 86.1429 48.3547 88.0319 49.149C95.6308 52.3903 100.547 56.6406 100.547 60.0107C100.525 63.3809 95.6093 67.6526 88.0104 70.8725Z" fill="#81D8F7"/>
<path d="M52.6345 69.8206C58.0524 69.8206 62.4444 65.4286 62.4444 60.0107C62.4444 54.5928 58.0524 50.2007 52.6345 50.2007C47.2166 50.2007 42.8245 54.5928 42.8245 60.0107C42.8245 65.4286 47.2166 69.8206 52.6345 69.8206Z" fill="#81D8F7"/>
</g>
<defs>
<clipPath id="clip0_1_49">
<rect width="105.312" height="120" fill="white"/>
</clipPath>
</defs>
</svg>
